<svg width="50" height="50" viewBox="0 0 50 50" fill="none" xmlns="http://www.w3.org/2000/svg">
<rect x="0.5" y="0.5" width="49.0007" height="49" stroke="#565656"/>
<path d="M18.3724 37H13.3966V20.9764H18.3724V37ZM15.8818 18.7907C14.2907 18.7907 13.0001 17.4728 13.0001 15.8817C13.0001 15.1174 13.3037 14.3844 13.8441 13.844C14.3846 13.3036 15.1175 13 15.8818 13C16.6461 13 17.379 13.3036 17.9194 13.844C18.4599 14.3844 18.7635 15.1174 18.7635 15.8817C18.7635 17.4728 17.4724 18.7907 15.8818 18.7907ZM36.9953 37H32.0302V29.1998C32.0302 27.3409 31.9927 24.9569 29.4432 24.9569C26.8561 24.9569 26.4597 26.9766 26.4597 29.0659V37H21.4892V20.9764H26.2615V23.1622H26.3311C26.9954 21.9032 28.6181 20.5746 31.0391 20.5746C36.0749 20.5746 37.0007 23.8908 37.0007 28.198V37H36.9953Z" fill="#565656"/>
</svg>
